<?xml version="1.0" encoding="UTF-8" standalone="no"?><!DOCTYPE svg PUBLIC "-//W3C//DTD SVG 1.1//EN" "http://www.w3.org/Graphics/SVG/1.1/DTD/svg11.dtd"><svg width="100%" height="100%" viewBox="0 0 1024 1024" version="1.1" xmlns="http://www.w3.org/2000/svg" xmlns:xlink="http://www.w3.org/1999/xlink" xml:space="preserve" xmlns:serif="http://www.serif.com/" style="fill-rule:evenodd;clip-rule:evenodd;stroke-linejoin:round;stroke-miterlimit:1.41421;"><g><path d="M198,895l190,0l520,-300l-96,-166l-519,-299l-95,163l0,602l11,-15l0,-570l16,0l151,87l0,483l-167,0l7,-588l84,-145l493,284l-6,11l-10,9l-143,82l-418,-241l-7,588l187,-3l493,-284c0,0 -83.986,-144.992 -84,-145c-0.014,-0.008 -417,240 -417,240l0,166l2,13l6,10l-185,3l177,-204l236,-136l-236,-137l0,273l-176.972,203.967l-2.028,0.033" style="fill:#f00;"/><g><path d="M353,880l0,-16l11,0l0,16l-11,0l0,-34l0,-15l11,0l0,15l-11,0l0,-33l0,-14l11,0l0,14l-11,0l0,-32l0,-15l11,0l0,15l-11,0l0,-33l0,-15l11,0l0,15l-11,0l0,-32l0,-15l11,0l0,15l-11,0l0,-33l0,-14l11,0l0,14l-11,0l0,-32l0,-15l11,0l0,15l-11,0l0,-33l0,-14l11,0l0,14l-11,0l0,-32l0,-14l11,0l0,14l-11,0l0,-32l0,-15l11,0l0,15l-11,0l0,-33l0,-14l11,0l0,14l-11,0l0,-32l0,-15l11,0l0,15l-11,0l0,-32l0,-15l11,0l0,15l-11,0l0,-33l0,-15l11,0l0,15l-11,0l0,-33l0,-9l11,7l0,2l-11,0" style="fill:#f00;"/><path d="M222,880l0,-16l11,0l0,16l-11,0l0,-34l0,-15l11,0l0,15l-11,0l0,-32l0,-16l11,0l0,16l-11,0l0,-33l0,-15l11,0l0,15l-11,0l0,-33l0,-15l11,0l0,15l-11,0l0,-32l0,-15l11,0l0,15l-11,0l0,-47l11,0l0,14l-11,0l0,-32l0,-15l11,0l0,15l-11,0l0,-33l0,-14l11,0l0,14l-11,0c0,0 -0.104,-32.104 0,-32c0.104,0.104 0,-14 0,-14l11,0l0,14l-11,0l0,-32l0,-15l11,0l0,15l-11,0l0,-33l0,-14l11,0l0,14l-11,0l0,-32l0,-15l11,0l0,15l-11,0l0,-33l0,-14l11,0l0,14l-11,0l0,-32l0,-15l11,0l0,15l-11,0l0,-33l0,-14l11,0l0,14l-11,0l0,-32l0,-15l11,0l0,15l-11,0l0,-33l0,-16l4,-1l7,4l0,13l-11,0" style="fill:#f00;"/></g><g><path d="M226.148,270.327l15.857,9.154l-5.5,9.527l-15.551,-8.978l5.194,-9.703l31.445,18.154l12.991,7.5l-5.5,9.527l-12.991,-7.5l5.5,-9.527l28.579,16.5l12.124,7l-5.5,9.527l-12.124,-7l5.5,-9.527l27.713,16l12.99,7.5l-5.5,9.527l-12.99,-7.5l5.5,-9.527l28.579,16.5l12.99,7.5l-5.5,9.527l-12.99,-7.5l5.5,-9.527l27.712,16l12.991,7.5l-5.5,9.527l-12.991,-7.5l5.5,-9.527l28.579,16.5l12.125,7l-5.5,9.527l-12.125,-7l5.5,-9.527l27.713,16l12.99,7.5l-5.5,9.527l-12.99,-7.5l5.5,-9.527l28.579,16.5l12.124,7l-5.5,9.527l-12.124,-7l5.5,-9.527l27.713,16l12.124,7l-5.5,9.527l-12.124,-7l5.5,-9.527l27.713,16l12.99,7.5l-5.5,9.527l-12.99,-7.5l5.5,-9.527l28.578,16.5l12.125,7l-5.5,9.527l-12.125,-7l5.5,-9.527l27.713,16l12.991,7.5l-5.5,9.527l-12.991,-7.5l5.5,-9.527l27.713,16l12.99,7.5l-5.5,9.527l-12.99,-7.5l5.5,-9.527l28.579,16.5l12.99,7.5l-5.5,9.527l-12.99,-7.5l5.5,-9.527l28.579,16.5l7.062,4.078l-10.696,6.526l-1.866,-1.077l5.5,-9.527" style="fill:#f00;"/><path d="M293.648,158.032l13.857,8l-5.5,9.526l-14.857,-8.577l5.5,-9.526l30.445,17.577l12.991,7.5l-5.5,9.526l-12.991,-7.5l5.5,-9.526l27.713,16l13.856,8l-5.5,9.526l-13.856,-8l5.5,-9.526l28.579,16.5l12.99,7.5l-5.5,9.526l-12.99,-7.5l5.5,-9.526l28.579,16.5l12.99,7.5l-5.5,9.526l-12.99,-7.5l5.5,-9.526l27.712,16l12.991,7.5l-5.5,9.526l-12.991,-7.5l5.5,-9.526l40.704,23.5l-5.5,9.526l-12.125,-7l5.5,-9.526l27.713,16l12.99,7.5l-5.5,9.526l-12.99,-7.5l5.5,-9.526l28.579,16.5l12.124,7l-5.5,9.526l-12.124,-7l5.5,-9.526c0,0 27.854,15.962 27.713,16c-0.142,0.038 12.124,7 12.124,7l-5.5,9.526l-12.124,-7l5.5,-9.526l27.713,16l12.99,7.5l-5.5,9.526l-12.99,-7.5l5.5,-9.526l28.578,16.5l12.125,7l-5.5,9.526l-12.125,-7l5.5,-9.526l27.713,16l12.991,7.5l-5.5,9.526l-12.991,-7.5l5.5,-9.526l28.579,16.5l12.124,7l-5.5,9.526l-12.124,-7l5.5,-9.526l27.713,16l12.99,7.5l-5.5,9.526l-12.99,-7.5l5.5,-9.526l28.579,16.5l12.124,7l-5.5,9.526l-12.124,-7l5.5,-9.526l27.712,16l12.991,7.5l-5.5,9.526l-12.991,-7.5l5.5,-9.526l28.579,16.5l13.857,8l-2,3.464l-6.83,4.14l-10.527,-6.078l5.5,-9.526" style="fill:#f00;"/></g><g><path d="M816.783,468.68l-13.857,8l-5.5,-9.526l15.551,-8.978l5.806,9.349l-31.445,18.155l-12.991,7.5l-5.5,-9.526l12.991,-7.5l5.5,9.526l-28.579,16.5l-12.124,7l-5.5,-9.526l12.124,-7l5.5,9.526l-27.713,16l-12.99,7.5l-5.5,-9.526l12.99,-7.5l5.5,9.526l-28.579,16.5l-12.99,7.5l-5.5,-9.526l12.99,-7.5l5.5,9.526l-27.712,16l-12.991,7.5l-5.5,-9.526l12.991,-7.5l5.5,9.526l-28.579,16.5l-12.125,7l-5.5,-9.526l12.125,-7l5.5,9.526l-27.713,16l-12.99,7.5l-5.5,-9.526l12.99,-7.5l5.5,9.526l-28.579,16.5l-12.124,7l-5.5,-9.526l12.124,-7l5.5,9.526l-27.713,16l-12.124,7l-5.5,-9.526l12.124,-7l5.5,9.526l-27.713,16l-12.99,7.5l-5.5,-9.526l12.99,-7.5l5.5,9.526l-28.578,16.5l-12.125,7l-5.5,-9.526l12.125,-7l5.5,9.526l-27.713,16l-12.991,7.5l-5.5,-9.526l12.991,-7.5l5.5,9.526l-27.713,16l-12.99,7.5l-5.5,-9.526l12.99,-7.5l5.5,9.526l-28.579,16.5l-12.99,7.5l-5.5,-9.526l12.99,-7.5l5.5,9.526l-28.579,16.5l-7.062,4.077l-0.304,-12.526l1.866,-1.077l5.5,9.526" style="fill:#f00;"/><path d="M882.283,582.129l-13.857,8l-5.5,-9.526l15.857,-9.155l5.5,9.527l-31.445,18.154l-12.991,7.5l-5.5,-9.526l12.991,-7.5l5.5,9.526l-27.713,16l-13.856,8l-5.5,-9.526l13.856,-8l5.5,9.526l-28.579,16.5l-12.99,7.5l-5.5,-9.526l12.99,-7.5l5.5,9.526l-28.579,16.5l-12.99,7.5l-5.5,-9.526l12.99,-7.5l5.5,9.526l-27.712,16l-12.991,7.5l-5.5,-9.526l12.991,-7.5l5.5,9.526l-40.704,23.5l-5.5,-9.526l12.125,-7l5.5,9.526l-27.713,16l-12.99,7.5l-5.5,-9.526l12.99,-7.5l5.5,9.526l-28.579,16.5l-12.124,7l-5.5,-9.526l12.124,-7l5.5,9.526c0,0 -27.751,16.142 -27.713,16c0.038,-0.141 -12.124,7 -12.124,7l-5.5,-9.526l12.124,-7l5.5,9.526l-27.713,16l-12.99,7.5l-5.5,-9.526l12.99,-7.5l5.5,9.526l-28.578,16.5l-12.125,7l-5.5,-9.526l12.125,-7l5.5,9.526l-27.713,16l-12.991,7.5l-5.5,-9.526l12.991,-7.5l5.5,9.526l-28.579,16.5l-12.124,7l-5.5,-9.526l12.124,-7l5.5,9.526l-27.713,16l-12.99,7.5l-5.5,-9.526l12.99,-7.5l5.5,9.526l-28.579,16.5l-12.124,7l-5.5,-9.526l12.124,-7l5.5,9.526l-27.712,16l-12.991,7.5l-5.5,-9.526l12.991,-7.5l5.5,9.526l-28.579,16.5l-13.857,8l-2,-3.464l-0.17,-7.984l10.527,-6.078l5.5,9.526" style="fill:#f00;"/></g></g></svg>