<?xml version="1.0" encoding="UTF-8" standalone="no"?>
<!DOCTYPE svg PUBLIC "-//W3C//DTD SVG 1.1//EN" "http://www.w3.org/Graphics/SVG/1.1/DTD/svg11.dtd">
<svg width="100%" height="100%" viewBox="0 0 1024 1024" version="1.1" xmlns="http://www.w3.org/2000/svg" xmlns:xlink="http://www.w3.org/1999/xlink" xml:space="preserve" xmlns:serif="http://www.serif.com/" style="fill-rule:evenodd;clip-rule:evenodd;stroke-linejoin:round;stroke-miterlimit:1.41421;">
    <g transform="matrix(1,0,0,1,168.664,-9)">
        <g transform="matrix(3.05121,0,0,3.05121,-837.834,-1922.53)">
            <path d="M386.032,944.65L386.032,936.06L389.841,936.06C390.607,936.06 391.189,936.137 391.587,936.291C391.986,936.445 392.304,936.718 392.542,937.109C392.781,937.499 392.9,937.931 392.9,938.403C392.9,939.013 392.702,939.527 392.308,939.945C391.913,940.362 391.304,940.628 390.48,940.741C390.781,940.886 391.009,941.028 391.165,941.169C391.497,941.474 391.812,941.855 392.109,942.312L393.603,944.65L392.173,944.65L391.036,942.862C390.704,942.347 390.431,941.952 390.216,941.679C390.001,941.405 389.809,941.214 389.639,941.105C389.469,940.995 389.296,940.919 389.12,940.876C388.991,940.849 388.781,940.835 388.488,940.835L387.169,940.835L387.169,944.65L386.032,944.65ZM387.169,939.851L389.613,939.851C390.132,939.851 390.538,939.797 390.831,939.69C391.124,939.582 391.347,939.41 391.499,939.174C391.652,938.938 391.728,938.681 391.728,938.403C391.728,937.997 391.58,937.663 391.285,937.402C390.99,937.14 390.525,937.009 389.888,937.009L387.169,937.009L387.169,939.851Z" style="fill:white;fill-rule:nonzero;"/>
            <path d="M398.806,942.646L399.896,942.78C399.724,943.417 399.406,943.911 398.941,944.263C398.476,944.614 397.882,944.79 397.159,944.79C396.249,944.79 395.528,944.51 394.994,943.949C394.461,943.389 394.195,942.603 394.195,941.591C394.195,940.544 394.464,939.732 395.003,939.153C395.542,938.575 396.241,938.286 397.101,938.286C397.933,938.286 398.613,938.57 399.14,939.136C399.667,939.702 399.931,940.499 399.931,941.527C399.931,941.589 399.929,941.683 399.925,941.808L395.284,941.808C395.323,942.491 395.517,943.015 395.864,943.378C396.212,943.741 396.646,943.923 397.165,943.923C397.552,943.923 397.882,943.821 398.156,943.618C398.429,943.415 398.646,943.091 398.806,942.646ZM395.343,940.941L398.818,940.941C398.771,940.417 398.638,940.025 398.419,939.763C398.083,939.357 397.648,939.153 397.113,939.153C396.628,939.153 396.221,939.316 395.891,939.64C395.561,939.964 395.378,940.398 395.343,940.941Z" style="fill:white;fill-rule:nonzero;"/>
            <path d="M405.281,943.882C404.89,944.214 404.514,944.448 404.153,944.585C403.791,944.722 403.404,944.79 402.989,944.79C402.306,944.79 401.781,944.623 401.413,944.289C401.046,943.955 400.863,943.528 400.863,943.009C400.863,942.704 400.932,942.426 401.071,942.174C401.209,941.922 401.391,941.72 401.615,941.568C401.84,941.415 402.093,941.3 402.374,941.222C402.581,941.167 402.894,941.114 403.312,941.064C404.163,940.962 404.79,940.841 405.193,940.7C405.197,940.556 405.198,940.464 405.198,940.425C405.198,939.995 405.099,939.693 404.9,939.517C404.63,939.278 404.23,939.159 403.698,939.159C403.202,939.159 402.836,939.246 402.6,939.42C402.364,939.594 402.189,939.902 402.075,940.343L401.044,940.202C401.138,939.761 401.292,939.404 401.507,939.133C401.722,938.862 402.032,938.653 402.439,938.506C402.845,938.36 403.316,938.286 403.851,938.286C404.382,938.286 404.814,938.349 405.146,938.474C405.478,938.599 405.722,938.756 405.878,938.945C406.034,939.135 406.144,939.374 406.206,939.663C406.241,939.843 406.259,940.167 406.259,940.636L406.259,942.042C406.259,943.023 406.281,943.643 406.326,943.903C406.371,944.162 406.46,944.411 406.593,944.65L405.491,944.65C405.382,944.431 405.312,944.175 405.281,943.882ZM405.193,941.527C404.81,941.683 404.236,941.816 403.47,941.925C403.036,941.987 402.73,942.058 402.55,942.136C402.37,942.214 402.232,942.328 402.134,942.479C402.036,942.629 401.988,942.796 401.988,942.98C401.988,943.261 402.094,943.495 402.307,943.683C402.52,943.87 402.831,943.964 403.241,943.964C403.648,943.964 404.009,943.875 404.325,943.697C404.642,943.52 404.874,943.277 405.023,942.968C405.136,942.73 405.193,942.378 405.193,941.913L405.193,941.527Z" style="fill:white;fill-rule:nonzero;"/>
            <path d="M411.931,944.65L411.931,943.864C411.536,944.482 410.956,944.79 410.191,944.79C409.695,944.79 409.239,944.653 408.822,944.38C408.406,944.107 408.084,943.725 407.856,943.235C407.627,942.744 407.513,942.181 407.513,941.544C407.513,940.923 407.616,940.36 407.823,939.854C408.031,939.348 408.341,938.96 408.755,938.691C409.169,938.421 409.632,938.286 410.144,938.286C410.519,938.286 410.853,938.365 411.146,938.524C411.439,938.682 411.677,938.888 411.861,939.142L411.861,936.06L412.909,936.06L412.909,944.65L411.931,944.65ZM408.597,941.544C408.597,942.341 408.765,942.937 409.101,943.331C409.437,943.726 409.833,943.923 410.29,943.923C410.751,943.923 411.143,943.735 411.465,943.358C411.787,942.981 411.948,942.405 411.948,941.632C411.948,940.78 411.784,940.155 411.456,939.757C411.128,939.359 410.724,939.159 410.243,939.159C409.775,939.159 409.383,939.351 409.069,939.734C408.754,940.116 408.597,940.72 408.597,941.544Z" style="fill:white;fill-rule:nonzero;"/>
            <path d="M414.521,947.046L414.404,946.056C414.634,946.118 414.835,946.15 415.007,946.15C415.241,946.15 415.429,946.111 415.57,946.032C415.71,945.954 415.825,945.845 415.915,945.704C415.982,945.599 416.089,945.337 416.238,944.919C416.257,944.861 416.288,944.775 416.331,944.661L413.97,938.427L415.107,938.427L416.402,942.03C416.57,942.487 416.72,942.968 416.853,943.472C416.974,942.987 417.118,942.515 417.286,942.054L418.616,938.427L419.671,938.427L417.304,944.755C417.05,945.439 416.853,945.909 416.712,946.167C416.525,946.515 416.31,946.77 416.068,946.932C415.825,947.094 415.536,947.175 415.2,947.175C414.997,947.175 414.771,947.132 414.521,947.046Z" style="fill:white;fill-rule:nonzero;"/>
        </g>
        <g transform="matrix(2.72727,0,0,2.72727,241.273,917.818)">
            <path d="M1,18L1,21L4,21C4,19.34 2.66,18 1,18ZM1,14L1,16C3.76,16 6,18.24 6,21L8,21C8,17.13 4.87,14 1,14ZM1,10L1,12C5.97,12 10,16.03 10,21L12,21C12,14.92 7.07,10 1,10ZM21,3L3,3C1.9,3 1,3.9 1,5L1,8L3,8L3,5L21,5L21,19L14,19L14,21L21,21C22.1,21 23,20.1 23,19L23,5C23,3.9 22.1,3 21,3Z" style="fill:white;fill-rule:nonzero;"/>
        </g>
    </g>
    <g transform="matrix(0.715033,0,0,0.715033,116.587,39.5458)">
        <path d="M198,895L388,895L908,595L812,429L293,130L198,293L198,895L209,880L209,310L225,310L376,397L376,880L209,880L216,292L300,147L793,431L787,442L777,451L634,533L216,292L209,880L396,877L889,593C889,593 805.014,448.008 805,448C804.986,447.992 388,688 388,688L388,854L390,867L396,877L211,880L388,676L624,540L388,403L388,676L211.028,879.967L209,880" style="fill:rgb(255,0,0);"/>
        <g>
            <path d="M353,880L353,864L364,864L364,880L353,880L353,846L353,831L364,831L364,846L353,846L353,813L353,799L364,799L364,813L353,813L353,781L353,766L364,766L364,781L353,781L353,748L353,733L364,733L364,748L353,748L353,716L353,701L364,701L364,716L353,716L353,683L353,669L364,669L364,683L353,683L353,651L353,636L364,636L364,651L353,651L353,618L353,604L364,604L364,618L353,618L353,586L353,572L364,572L364,586L353,586L353,554L353,539L364,539L364,554L353,554L353,521L353,507L364,507L364,521L353,521L353,489L353,474L364,474L364,489L353,489L353,457L353,442L364,442L364,457L353,457L353,424L353,409L364,409L364,424L353,424L353,391L353,382L364,389L364,391L353,391" style="fill:rgb(255,0,0);"/>
            <path d="M222,880L222,864L233,864L233,880L222,880L222,846L222,831L233,831L233,846L222,846L222,814L222,798L233,798L233,814L222,814L222,781L222,766L233,766L233,781L222,781L222,748L222,733L233,733L233,748L222,748L222,716L222,701L233,701L233,716L222,716L222,669L233,669L233,683L222,683L222,651L222,636L233,636L233,651L222,651L222,618L222,604L233,604L233,618L222,618C222,618 221.896,585.896 222,586C222.104,586.104 222,572 222,572L233,572L233,586L222,586L222,554L222,539L233,539L233,554L222,554L222,521L222,507L233,507L233,521L222,521L222,489L222,474L233,474L233,489L222,489L222,456L222,442L233,442L233,456L222,456L222,424L222,409L233,409L233,424L222,424L222,391L222,377L233,377L233,391L222,391L222,359L222,344L233,344L233,359L222,359L222,326L222,310L226,309L233,313L233,326L222,326" style="fill:rgb(255,0,0);"/>
        </g>
        <g>
            <path d="M226.148,270.327L242.005,279.481L236.505,289.008L220.954,280.03L226.148,270.327L257.593,288.481L270.584,295.981L265.084,305.508L252.093,298.008L257.593,288.481L286.172,304.981L298.296,311.981L292.796,321.508L280.672,314.508L286.172,304.981L313.885,320.981L326.875,328.481L321.375,338.008L308.385,330.508L313.885,320.981L342.464,337.481L355.454,344.981L349.954,354.508L336.964,347.008L342.464,337.481L370.176,353.481L383.167,360.981L377.667,370.508L364.676,363.008L370.176,353.481L398.755,369.981L410.88,376.981L405.38,386.508L393.255,379.508L398.755,369.981L426.468,385.981L439.458,393.481L433.958,403.008L420.968,395.508L426.468,385.981L455.047,402.481L467.171,409.481L461.671,419.008L449.547,412.008L455.047,402.481L482.76,418.481L494.884,425.481L489.384,435.008L477.26,428.008L482.76,418.481L510.473,434.481L523.463,441.981L517.963,451.508L504.973,444.008L510.473,434.481L539.051,450.981L551.176,457.981L545.676,467.508L533.551,460.508L539.051,450.981L566.764,466.981L579.755,474.481L574.255,484.008L561.264,476.508L566.764,466.981L594.477,482.981L607.467,490.481L601.967,500.008L588.977,492.508L594.477,482.981L623.056,499.481L636.046,506.981L630.546,516.508L617.556,509.008L623.056,499.481L651.635,515.981L658.697,520.059L648.001,526.585L646.135,525.508L651.635,515.981" style="fill:rgb(255,0,0);"/>
            <path d="M293.648,158.032L307.505,166.032L302.005,175.558L287.148,166.981L292.648,157.455L323.093,175.032L336.084,182.532L330.584,192.058L317.593,184.558L323.093,175.032L350.806,191.032L364.662,199.032L359.162,208.558L345.306,200.558L350.806,191.032L379.385,207.532L392.375,215.032L386.875,224.558L373.885,217.058L379.385,207.532L407.964,224.032L420.954,231.532L415.454,241.058L402.464,233.558L407.964,224.032L435.676,240.032L448.667,247.532L443.167,257.058L430.176,249.558L435.676,240.032L476.38,263.532L470.88,273.058L458.755,266.058L464.255,256.532L491.968,272.532L504.958,280.032L499.458,289.558L486.468,282.058L491.968,272.532L520.547,289.032L532.671,296.032L527.171,305.558L515.047,298.558L520.547,289.032C520.547,289.032 548.401,304.994 548.26,305.032C548.118,305.07 560.384,312.032 560.384,312.032L554.884,321.558L542.76,314.558L548.26,305.032L575.973,321.032L588.963,328.532L583.463,338.058L570.473,330.558L575.973,321.032L604.551,337.532L616.676,344.532L611.176,354.058L599.051,347.058L604.551,337.532L632.264,353.532L645.255,361.032L639.755,370.558L626.764,363.058L632.264,353.532L660.843,370.032L672.967,377.032L667.467,386.558L655.343,379.558L660.843,370.032L688.556,386.032L701.546,393.532L696.046,403.058L683.056,395.558L688.556,386.032L717.135,402.532L729.259,409.532L723.759,419.058L711.635,412.058L717.135,402.532L744.847,418.532L757.838,426.032L752.338,435.558L739.347,428.058L744.847,418.532L773.426,435.032L787.283,443.032L785.283,446.496L778.453,450.636L767.926,444.558L773.426,435.032" style="fill:rgb(255,0,0);"/>
        </g>
        <g>
            <path d="M816.783,468.68L802.926,476.68L797.426,467.154L812.977,458.176L818.783,467.525L787.338,485.68L774.347,493.18L768.847,483.654L781.838,476.154L787.338,485.68L758.759,502.18L746.635,509.18L741.135,499.654L753.259,492.654L758.759,502.18L731.046,518.18L718.056,525.68L712.556,516.154L725.546,508.654L731.046,518.18L702.467,534.68L689.477,542.18L683.977,532.654L696.967,525.154L702.467,534.68L674.755,550.68L661.764,558.18L656.264,548.654L669.255,541.154L674.755,550.68L646.176,567.18L634.051,574.18L628.551,564.654L640.676,557.654L646.176,567.18L618.463,583.18L605.473,590.68L599.973,581.154L612.963,573.654L618.463,583.18L589.884,599.68L577.76,606.68L572.26,597.154L584.384,590.154L589.884,599.68L562.171,615.68L550.047,622.68L544.547,613.154L556.671,606.154L562.171,615.68L534.458,631.68L521.468,639.18L515.968,629.654L528.958,622.154L534.458,631.68L505.88,648.18L493.755,655.18L488.255,645.654L500.38,638.654L505.88,648.18L478.167,664.18L465.176,671.68L459.676,662.154L472.667,654.654L478.167,664.18L450.454,680.18L437.464,687.68L431.964,678.154L444.954,670.654L450.454,680.18L421.875,696.68L408.885,704.18L403.385,694.654L416.375,687.154L421.875,696.68L393.296,713.18L386.234,717.257L385.93,704.731L387.796,703.654L393.296,713.18" style="fill:rgb(255,0,0);"/>
            <path d="M882.283,582.129L868.426,590.129L862.926,580.603L878.783,571.448L884.283,580.975L852.838,599.129L839.847,606.629L834.347,597.103L847.338,589.603L852.838,599.129L825.125,615.129L811.269,623.129L805.769,613.603L819.625,605.603L825.125,615.129L796.546,631.629L783.556,639.129L778.056,629.603L791.046,622.103L796.546,631.629L767.967,648.129L754.977,655.629L749.477,646.103L762.467,638.603L767.967,648.129L740.255,664.129L727.264,671.629L721.764,662.103L734.755,654.603L740.255,664.129L699.551,687.629L694.051,678.103L706.176,671.103L711.676,680.629L683.963,696.629L670.973,704.129L665.473,694.603L678.463,687.103L683.963,696.629L655.384,713.129L643.26,720.129L637.76,710.603L649.884,703.603L655.384,713.129C655.384,713.129 627.633,729.271 627.671,729.129C627.709,728.988 615.547,736.129 615.547,736.129L610.047,726.603L622.171,719.603L627.671,729.129L599.958,745.129L586.968,752.629L581.468,743.103L594.458,735.603L599.958,745.129L571.38,761.629L559.255,768.629L553.755,759.103L565.88,752.103L571.38,761.629L543.667,777.629L530.676,785.129L525.176,775.603L538.167,768.103L543.667,777.629L515.088,794.129L502.964,801.129L497.464,791.603L509.588,784.603L515.088,794.129L487.375,810.129L474.385,817.629L468.885,808.103L481.875,800.603L487.375,810.129L458.796,826.629L446.672,833.629L441.172,824.103L453.296,817.103L458.796,826.629L431.084,842.629L418.093,850.129L412.593,840.603L425.584,833.103L431.084,842.629L402.505,859.129L388.648,867.129L386.648,863.665L386.478,855.681L397.005,849.603L402.505,859.129" style="fill:rgb(255,0,0);"/>
        </g>
    </g>
</svg>
